Coordinates
version=1
nRows=20
nColumns=38
inDegrees=no

Units are S.I. units (second, meters, Newtons, ...)
If the header above contains a line with 'inDegrees', this indicates whether rotational values are in degrees (yes) or radians (no).

endheader
time	pelvis_tilt	pelvis_list	pelvis_rotation	pelvis_tx	pelvis_ty	pelvis_tz	hip_flexion_r	hip_adduction_r	hip_rotation_r	knee_angle_r	ankle_angle_r	subtalar_angle_r	mtp_angle_r	hip_flexion_l	hip_adduction_l	hip_rotation_l	knee_angle_l	ankle_angle_l	subtalar_angle_l	mtp_angle_l	lumbar_extension	lumbar_bending	lumbar_rotation	arm_flex_r	arm_add_r	arm_rot_r	elbow_flex_r	pro_sup_r	wrist_flex_r	wrist_dev_r	arm_flex_l	arm_add_l	arm_rot_l	elbow_flex_l	pro_sup_l	wrist_flex_l	wrist_dev_l
0	1.69301	1.48286	-0.0315362	0.701779	-0.668442	0.909849	0.36375	0.0244754	-0.397407	0.431187	0.0775681	0	0	-0.053316	-0.272197	-0.215011	0.885528	-0.0672272	0	0	-0.125614	0.153037	-0.152603	-0.0446975	-0.332045	0.445745	0.59698	1.17915	0	0	0.00667404	-0.396608	0.375508	0.833328	1.05676	0	0
0.01	1.6536	1.48041	0.00549757	0.703936	-0.658148	0.910672	0.355411	0.0337062	-0.389914	0.429808	0.0833202	0	0	-0.0190576	-0.282299	-0.200561	0.938556	-0.115268	0	0	-0.121143	0.156061	-0.147286	-0.0466458	-0.336572	0.450747	0.600594	1.18137	0	0	-0.00035527	-0.395339	0.384318	0.828498	1.05594	0	0
0.02	1.65763	1.47944	-0.0016978	0.706007	-0.647822	0.911956	0.34243	0.0411997	-0.381522	0.427988	0.0902206	0	0	0.00800731	-0.288908	-0.189601	0.984294	-0.148249	0	0	-0.12141	0.157341	-0.141137	-0.0475984	-0.34071	0.453686	0.604777	1.1831	0	0	-0.00735358	-0.394399	0.392834	0.824421	1.05525	0	0
0.03	1.68379	1.47991	-0.0319348	0.708019	-0.637648	0.913536	0.326765	0.0468983	-0.373128	0.425084	0.0965331	0	0	0.0307596	-0.292423	-0.18169	1.02431	-0.166427	0	0	-0.124517	0.156892	-0.133883	-0.0477367	-0.344728	0.456145	0.608777	1.1854	0	0	-0.013108	-0.393321	0.401736	0.81996	1.05491	0	0
0.04	1.7291	1.4807	-0.0804048	0.7099	-0.627421	0.91541	0.308086	0.0514264	-0.367145	0.420346	0.102277	0	0	0.0501252	-0.294541	-0.173917	1.0589	-0.174851	0	0	-0.129146	0.155794	-0.127496	-0.0474331	-0.348142	0.457554	0.612445	1.18901	0	0	-0.0189439	-0.392209	0.41035	0.814907	1.05405	0	0
0.05	1.78671	1.48204	-0.141626	0.711776	-0.617344	0.917468	0.287934	0.0549261	-0.361158	0.414468	0.107996	0	0	0.0676545	-0.295439	-0.167427	1.0899	-0.170679	0	0	-0.135023	0.153471	-0.120296	-0.0466158	-0.350952	0.457762	0.614993	1.19693	0	0	-0.0237734	-0.391189	0.420124	0.809122	1.05081	0	0
0.06	1.84876	1.48451	-0.207326	0.713582	-0.607455	0.919566	0.267712	0.0564949	-0.355548	0.408253	0.11333	0	0	0.0854974	-0.29418	-0.161516	1.11919	-0.154374	0	0	-0.141148	0.149425	-0.113749	-0.0443882	-0.352385	0.455675	0.615734	1.20627	0	0	-0.0290883	-0.389884	0.427435	0.803937	1.04881	0	0
0.07	1.91195	1.4873	-0.272957	0.715242	-0.59765	0.921651	0.247082	0.0570381	-0.352137	0.400266	0.117949	0	0	0.104386	-0.291709	-0.155742	1.14628	-0.131199	0	0	-0.146586	0.144682	-0.109101	-0.04132	-0.353036	0.4532	0.615471	1.21552	0	0	-0.0348408	-0.388132	0.432778	0.79811	1.0476	0	0
0.08	1.98313	1.49058	-0.346891	0.716839	-0.588011	0.923745	0.226164	0.0564662	-0.349019	0.391368	0.121656	0	0	0.122112	-0.288062	-0.152379	1.16769	-0.108868	0	0	-0.15206	0.138812	-0.104451	-0.0371025	-0.353423	0.451752	0.61401	1.22438	0	0	-0.0402853	-0.385938	0.436831	0.791967	1.04629	0	0
0.09	2.0572	1.49432	-0.42471	0.718434	-0.578616	0.925773	0.205849	0.0550766	-0.345503	0.381752	0.124655	0	0	0.139238	-0.283341	-0.151317	1.1828	-0.0903595	0	0	-0.157176	0.131996	-0.0988484	-0.0326481	-0.353767	0.44918	0.613462	1.23235	0	0	-0.0449886	-0.38336	0.440652	0.785428	1.04434	0	0
0.1	2.12607	1.49799	-0.496731	0.719969	-0.569232	0.927651	0.186106	0.0534882	-0.343527	0.371178	0.127635	0	0	0.156708	-0.278492	-0.150771	1.19243	-0.0758238	0	0	-0.160752	0.125234	-0.0942473	-0.0285821	-0.354466	0.446727	0.616019	1.23575	0	0	-0.0506637	-0.380816	0.443456	0.778824	1.04285	0	0
0.11	2.19389	1.50185	-0.567359	0.721383	-0.559934	0.92938	0.167391	0.0513669	-0.341914	0.360658	0.131032	0	0	0.174327	-0.273224	-0.151537	1.19732	-0.0638965	0	0	-0.163221	0.118399	-0.0900095	-0.0250946	-0.355459	0.44483	0.619505	1.23916	0	0	-0.0568564	-0.378448	0.446338	0.772898	1.04124	0	0
0.12	2.26484	1.50578	-0.642049	0.722756	-0.550723	0.930981	0.149699	0.0487669	-0.339641	0.350787	0.134686	0	0	0.191271	-0.267858	-0.155207	1.19736	-0.053335	0	0	-0.165248	0.111454	-0.0845417	-0.0228958	-0.357125	0.44204	0.624885	1.24449	0	0	-0.0627459	-0.375577	0.448486	0.767707	1.03801	0	0
0.13	2.34398	1.50975	-0.725811	0.724111	-0.541561	0.932455	0.13257	0.0454381	-0.337607	0.34128	0.138421	0	0	0.20715	-0.262272	-0.161391	1.19272	-0.0432503	0	0	-0.166924	0.104235	-0.0784203	-0.0211143	-0.358911	0.436213	0.631973	1.24896	0	0	-0.0687379	-0.37228	0.44939	0.76305	1.03355	0	0
0.14	2.42739	1.51345	-0.813958	0.725415	-0.532395	0.933792	0.115743	0.0420678	-0.335608	0.331679	0.141762	0	0	0.222398	-0.256977	-0.16919	1.18419	-0.0318317	0	0	-0.168041	0.0971839	-0.0723487	-0.01979	-0.360886	0.428592	0.642149	1.25154	0	0	-0.0749801	-0.368831	0.449838	0.758628	1.02826	0	0
0.15	2.52585	1.51628	-0.917857	0.726654	-0.52332	0.935056	0.0987873	0.0387688	-0.331471	0.322311	0.144692	0	0	0.236031	-0.252013	-0.179652	1.17228	-0.015914	0	0	-0.169819	0.0902375	-0.0652017	-0.0194204	-0.363191	0.417679	0.655716	1.25052	0	0	-0.0807593	-0.365152	0.449958	0.754958	1.02173	0	0
0.16	2.62658	1.51812	-1.02413	0.727864	-0.51424	0.936197	0.0818517	0.0360317	-0.32665	0.312853	0.147439	0	0	0.248633	-0.247767	-0.191776	1.15722	0.00177417	0	0	-0.171649	0.0838589	-0.0578062	-0.0195397	-0.365713	0.407411	0.669919	1.24787	0	0	-0.0868253	-0.361369	0.449141	0.75207	1.01513	0	0
0.17	2.72774	1.519	-1.13034	0.729037	-0.505154	0.937229	0.0645391	0.033662	-0.322165	0.303126	0.149845	0	0	0.26019	-0.244061	-0.205012	1.13872	0.017861	0	0	-0.173612	0.0779266	-0.0514785	-0.0193213	-0.368663	0.401358	0.682584	1.24805	0	0	-0.0935202	-0.357495	0.446426	0.749769	1.00821	0	0
0.18	2.83183	1.51872	-1.23939	0.730174	-0.496101	0.938186	0.0466133	0.0313294	-0.317488	0.293466	0.152291	0	0	0.269957	-0.240486	-0.219535	1.11667	0.0305197	0	0	-0.17625	0.0720921	-0.0454582	-0.0183392	-0.371471	0.396317	0.693903	1.24973	0	0	-0.100129	-0.353623	0.442713	0.747811	1.00141	0	0
0.19	2.93719	1.51696	-1.34938	0.731195	-0.48705	0.939109	0.0277384	0.0286307	-0.313315	0.284291	0.155446	0	0	0.277482	-0.236973	-0.235665	1.09122	0.0417733	0	0	-0.179909	0.0662841	-0.0392352	-0.0172419	-0.373783	0.388558	0.705483	1.25037	0	0	-0.105928	-0.349632	0.439001	0.745619	0.995227	0	0
